<?xml version="1.0" encoding="UTF-8"?>
<svg id="Layer_2" data-name="Layer 2" xmlns="http://www.w3.org/2000/svg" viewBox="0 0 333.35 342.71">
  <defs>
    <style>
      .cls-1 {
        fill: #606060;
        stroke-width: 0px;
      }
    </style>
  </defs>
  <g id="Layer_1-2" data-name="Layer 1">
    <g>
      <g>
        <path class="cls-1" d="M142.26,25.18l-.04-.23c.01-.08.05-.24.12-.49.07-.24.13-.41.19-.5-.02-.28-.05-.8-.08-1.55-.03-.75-.07-1.54-.1-2.39-.03-.84-.07-1.63-.12-2.38-.04-.75-.07-1.28-.07-1.59,0-.44.05-.83.12-1.17.08-.34.08-.73,0-1.19-.01-.08-.05-.23-.1-.45s-.08-.38-.09-.45c-.13,0-.37-.04-.7-.12-.33-.08-.68-.16-1.06-.25-.37-.09-.73-.18-1.06-.27-.33-.09-.56-.15-.67-.18-.25-.06-.62-.15-1.12-.26-.5-.11-1-.26-1.51-.43-.51-.18-.96-.37-1.36-.59-.4-.22-.62-.47-.66-.75-.03-.2.02-.45.15-.75.14-.3.32-.58.56-.86.23-.27.48-.51.73-.73.26-.21.5-.34.74-.38.47-.08.91-.02,1.35.19s.87.43,1.31.7c.44.26.9.49,1.37.69.47.19.98.25,1.52.16l-1.12-6.69c-.03-.18.03-.39.19-.64.16-.25.36-.49.6-.73.24-.24.47-.44.7-.61.22-.17.4-.26.53-.28.03,0,.11,0,.24,0,.12.08.27.18.45.3.18.11.36.23.54.34.18.11.33.22.45.31.12.1.19.16.19.18l1.45,8.67c.09.53.36.83.83.9.46.07.98.11,1.54.13.56.02,1.08.13,1.57.3.48.18.79.64.91,1.37.08.46,0,.86-.26,1.21-.25.35-.64.58-1.19.67l-.23.04-1.94-.14s-.1.01-.24.02-.22.02-.27.03c-.29.05-.48.17-.58.37-.1.2-.15.43-.14.69,0,.26.03.52.09.77.06.25.1.47.13.64.05.3.12.83.2,1.57.08.74.18,1.53.28,2.36.1.83.18,1.62.24,2.36.06.75.1,1.26.12,1.54-.09.43-.17.8-.23,1.11-.07.31-.16.57-.29.79-.12.22-.3.39-.53.52-.23.13-.54.23-.93.29-.72.12-1.33-.03-1.81-.46-.49-.43-.79-1-.9-1.71Z"/>
        <path class="cls-1" d="M167.71,15.2c-.42.25-.89.38-1.41.4s-1.07-.01-1.62-.11c-.56-.09-1.09-.17-1.59-.24-.51-.07-.98.01-1.44.25-.46.24-.91.51-1.37.82,1.24.9,2.27,1.61,3.08,2.15.81.54,1.41.9,1.79,1.08.46.2.9.4,1.32.61.42.2.82.41,1.2.62.79.41,1.45.86,1.98,1.34.53.48.82,1,.85,1.57v.19c-.08.11-.28.29-.58.54-.3.25-.51.41-.64.47h-.2c-.68.06-1.21.05-1.58-.02-.37-.07-.69-.17-.95-.32-.26-.15-.52-.34-.77-.57-.25-.23-.6-.48-1.04-.76-.41-.28-.94-.64-1.59-1.07-.65-.43-1.29-.86-1.92-1.28s-1.18-.78-1.65-1.09c-.47-.3-.71-.46-.74-.45l-2.12-1.13-3.41-2.01,2.35-3.86c1.85-3.06,3.62-5.3,5.31-6.72,1.69-1.42,3.34-2.19,4.94-2.29.73-.05,1.24.11,1.53.48.29.37.45.77.48,1.2.02.38-.28.78-.93,1.18s-1.42.89-2.31,1.45c-.9.56-1.82,1.25-2.78,2.06-.96.81-1.74,1.79-2.35,2.93l1.01-.22c.58.09,1.17.07,1.75-.08.58-.14,1.15-.3,1.7-.46.56-.17,1.11-.3,1.67-.42.56-.11,1.1-.11,1.64,0,.77.16,1.25.45,1.42.89.17.44.17.97,0,1.6h-.08c-.22.61-.54,1.04-.96,1.28Z"/>
        <path class="cls-1" d="M191.16,17.09l-5.89-4.96c-.26-.02-.64.02-1.13.12-.49.1-1.01.22-1.56.38-.55.15-1.06.31-1.53.47-.47.16-.83.3-1.07.41-.75.57-1.28,1.16-1.6,1.78-.32.62-.53,1.3-.63,2.02-.1.73-.15,1.52-.14,2.37s-.05,1.8-.17,2.85c-.32.44-.61.78-.88,1-.27.23-.63.32-1.1.29-.37-.03-.68-.12-.93-.28-.25-.16-.55-.43-.89-.81l.02-.31c0-.15.02-.32.02-.5,0-.18,0-.33.01-.46l.02-.35c.04-.62.1-1.57.17-2.87.08-1.3.19-2.74.34-4.32.15-1.59.34-3.21.57-4.87.23-1.66.52-3.16.86-4.52.34-1.35.74-2.46,1.21-3.32.46-.86,1.01-1.26,1.64-1.22.39.03.78.26,1.15.7s.75.97,1.11,1.6c.36.63.73,1.32,1.1,2.07s.76,1.44,1.18,2.07c.42.63.86,1.17,1.33,1.62.47.44.99.69,1.57.73.08,0,.17,0,.28,0,.11,0,.17,0,.2,0,1.47-.72,2.96-1.5,4.48-2.34,1.52-.84,2.98-1.71,4.38-2.62.08-.02.2-.03.36-.03.16,0,.27,0,.35,0,.47.03.93.2,1.38.52.45.31.66.74.62,1.28-.06.82-.19,1.64-.38,2.46-.2.82-.43,1.65-.68,2.46-.25.82-.51,1.64-.78,2.46s-.5,1.63-.72,2.44c-.03.13-.07.3-.1.53s-.05.51-.08.84c-.05.74-.14,1.64-.26,2.69-.12,1.05-.3,2.05-.54,3.01-.24.96-.54,1.78-.92,2.45-.37.67-.85.99-1.42.95-.13,0-.31-.07-.54-.19-.23-.12-.46-.26-.68-.41-.23-.16-.42-.32-.58-.5-.16-.18-.23-.33-.23-.46l1.08-7.23ZM178.85,5.63l-.27,5.74c.29.02.71.04,1.28.05.56.01,1.13,0,1.7-.06s1.07-.15,1.5-.28c.43-.14.65-.35.67-.63,0-.13-.05-.26-.17-.4-.12-.14-.27-.27-.45-.4-.18-.13-.36-.26-.55-.39s-.33-.24-.43-.32c-.13-.11-.33-.37-.62-.78-.29-.41-.59-.83-.9-1.28-.31-.45-.59-.84-.85-1.2-.25-.35-.39-.52-.42-.49l-.5.43ZM187.19,11.14c.02.08.07.19.13.32.07.13.15.27.25.42.09.15.18.29.27.42s.15.23.2.28c.17.22.44.41.81.58.37.17.74.3,1.12.4.37.1.85.2,1.42.29l.94.06c-.11,0-.09-.12.04-.35.13-.22.3-.49.49-.8.19-.31.38-.62.58-.93.19-.31.29-.55.31-.73.02-.36.05-.69.09-1,.03-.31.06-.55.07-.73,0-.13.01-.3.02-.52,0-.22,0-.43.02-.63.01-.21.02-.4.02-.58,0-.18,0-.28,0-.31l-.44-.49-6.32,4.28Z"/>
        <path class="cls-1" d="M198.27,24.99l.05-.27c.04-.1.16-.38.34-.86s.39-.99.61-1.53c.23-.55.43-1.06.61-1.53.18-.48.29-.78.31-.9.06-.17.16-.52.3-1.04.14-.52.29-1.14.45-1.85s.34-1.47.53-2.27c.19-.8.37-1.56.53-2.27.16-.71.3-1.34.41-1.86.11-.53.19-.88.22-1.06.11-.45.25-.99.43-1.61.17-.62.39-1.2.67-1.74.28-.54.63-.97,1.07-1.31.44-.34.99-.44,1.66-.31.08.01.23.05.46.11.23.06.38.09.46.11l4.15,5.97c.21.28.6.69,1.14,1.26.55.56,1.09,1.15,1.62,1.78.54.63,1,1.24,1.39,1.83.39.6.56,1.07.49,1.43-.11.56-.48,1.01-1.12,1.37-.64.36-1.42.68-2.32.95-.91.27-1.89.5-2.94.7-1.05.19-2.04.39-2.98.59-.93.2-1.74.43-2.43.69-.69.26-1.13.58-1.31.97-.18.36-.32.82-.45,1.39-.12.56-.29,1.11-.51,1.63s-.51.94-.88,1.26c-.37.32-.86.42-1.48.31-.46-.09-.77-.25-.91-.49-.14-.24-.35-.66-.64-1.26l.04-.19ZM206.99,9.43l-.55.37s-.1.19-.22.51-.24.69-.37,1.11c-.13.42-.26.85-.39,1.3-.12.45-.21.81-.27,1.09-.03.18-.1.49-.2.94-.1.45-.21.93-.34,1.45-.12.51-.24.99-.34,1.45-.1.45-.16.77-.2.94.18.03.61-.06,1.3-.28.68-.22,1.41-.49,2.18-.8.77-.31,1.49-.62,2.16-.94.67-.32,1.1-.55,1.29-.69-.18-.32-.43-.76-.75-1.3-.32-.54-.67-1.12-1.05-1.73-.38-.61-.76-1.22-1.15-1.83-.39-.61-.76-1.13-1.1-1.56Z"/>
        <path class="cls-1" d="M221.73,27.56c.07-.86-.03-1.67-.28-2.42-.25-.75-.56-1.46-.91-2.15-.36-.68-.69-1.36-1-2.01-.31-.66-.47-1.32-.49-2,0-.06.03-.17.12-.33.09-.16.15-.29.18-.39.19-.08.51-.24.95-.5.45-.25.93-.54,1.45-.85.52-.31,1.01-.61,1.46-.89.45-.28.76-.47.94-.58.61-.38,1.28-.95,2.03-1.7.75-.75,1.52-1.48,2.32-2.18.8-.7,1.6-1.27,2.4-1.71.81-.44,1.57-.55,2.3-.33.1.03.23.07.38.11s.3.1.44.17c.14.07.26.17.35.29.09.12.13.26.14.42-.13,1.17-.2,2.35-.21,3.54,0,1.19.18,2.37.54,3.52.18.51.42,1.07.74,1.69.32.62.6,1.24.84,1.86.24.62.36,1.21.37,1.78,0,.57-.23,1.05-.7,1.44l-11.56,9.6-2.8-6.4ZM224.25,20.03c-.12.39-.17.99-.15,1.8.02.81.09,1.63.22,2.46.13.83.32,1.58.58,2.25.25.67.55,1.05.9,1.16.33.1.82-.09,1.48-.56.66-.47,1.34-1.06,2.03-1.76.69-.7,1.32-1.44,1.88-2.21.56-.77.91-1.39,1.05-1.86.1-.35.1-.82-.02-1.43-.12-.61-.29-1.23-.51-1.85-.22-.62-.5-1.17-.82-1.65s-.63-.77-.93-.86c-.23-.07-.64.08-1.24.43-.6.36-1.22.79-1.85,1.31-.64.52-1.21,1.04-1.73,1.57s-.81.93-.89,1.2Z"/>
        <path class="cls-1" d="M237.22,32.34c.52-.68,1.08-1.35,1.66-2.01.58-.66,1.15-1.31,1.7-1.96.55-.64,1.02-1.29,1.41-1.93.17-.32.42-.8.77-1.45.35-.65.76-1.35,1.23-2.11.47-.76.99-1.54,1.56-2.33.57-.79,1.14-1.48,1.73-2.07s1.16-1.03,1.73-1.33c.57-.3,1.11-.34,1.62-.12.39.17.78.53,1.2,1.1.41.57.81,1.24,1.2,2.03s.76,1.63,1.1,2.53c.34.9.62,1.78.84,2.63.22.85.36,1.62.42,2.3.06.68.02,1.2-.13,1.56-.25.59-.67.94-1.27,1.05-.59.11-1.21.17-1.87.18s-1.28.06-1.86.14c-.58.09-.99.4-1.22.94-.03.07-.06.16-.09.26-.03.1-.05.16-.06.19l2.26,5.5c.19.42.36.7.5.84.14.14.25.25.33.33.08.08.12.16.1.25-.01.09-.08.28-.2.56-.32.76-.75,1.19-1.27,1.32s-1.14.04-1.83-.26c-.6-.26-1.06-.63-1.37-1.11-.31-.48-.54-1.02-.71-1.63s-.29-1.24-.36-1.9c-.07-.66-.19-1.29-.36-1.9-.17-.6-.41-1.15-.73-1.64-.32-.49-.79-.86-1.42-1.13-.36-.16-.63-.22-.79-.19-.17.03-.4.24-.69.65-.14.19-.35.51-.64.94-.29.44-.6.9-.93,1.41-.33.5-.63.97-.91,1.41s-.47.76-.59.96l-1.85.71-.18-.08c-.6-.26-1.03-.6-1.28-1.01-.25-.41-.25-.92,0-1.51.31-.73.73-1.44,1.26-2.12ZM248.88,22.36s-.12.06-.28.21c-.17.15-.36.34-.57.57-.21.23-.42.47-.63.73-.21.26-.37.48-.48.66-.04.09-.13.26-.26.5-.13.24-.27.49-.41.77-.15.27-.29.53-.42.78-.14.25-.22.41-.25.48.24.1.45.19.62.25s.33.1.46.12c.14.02.28.02.44.02.16,0,.37-.01.64-.04l2.72-.34.55-1.27-1.26-3.06-.87-.37Z"/>
        <path class="cls-1" d="M256.7,45.07c-.4.19-.8.25-1.2.21-.4-.05-.79-.18-1.18-.4-.14-.08-.29-.18-.46-.3-.17-.13-.32-.27-.46-.42-.14-.15-.24-.32-.29-.49s-.02-.37.09-.57l4.99-8.86c.08-.13.21-.38.4-.75.19-.36.41-.74.66-1.13.25-.39.52-.72.8-.99.29-.27.56-.36.81-.27.31.03.86,0,1.64-.07.78-.08,1.68-.17,2.7-.27,1.02-.1,2.09-.21,3.22-.31,1.12-.1,2.2-.18,3.23-.24,1.03-.06,1.93-.07,2.71-.04.78.03,1.33.13,1.65.31.41.23.7.58.88,1.05.17.47.27.97.28,1.51s-.04,1.05-.15,1.55c-.12.5-.25.89-.42,1.18-.14.3-.4.83-.79,1.57-.39.74-.85,1.58-1.38,2.52-.52.92-1.07,1.88-1.65,2.89-.59,1.01-1.13,1.95-1.62,2.8-.5.86-.92,1.58-1.26,2.16-.35.59-.54.93-.59,1.01-.14.25-.32.51-.54.8-.22.29-.47.53-.73.74-.27.2-.56.34-.89.41-.32.07-.66,0-1-.19-.34-.19-.65-.5-.93-.92-.27-.42-.29-.85-.03-1.3l4.16-7.39c-.62.03-1.39.06-2.3.07-.91.02-1.8.02-2.67.02-.87,0-1.64-.01-2.31-.02-.67,0-1.08-.01-1.24-.01l-1.93.06c-.19.39-.38.78-.56,1.15-.18.37-.38.75-.59,1.13l-.21.37c-.1.18-.21.36-.33.54-.12.19-.23.37-.33.54l-.19.34ZM260.21,38.11c.66.17,1.43.27,2.33.32.89.05,1.82.05,2.79.02.96-.03,1.93-.08,2.91-.15s1.88-.15,2.71-.24l1.51-2.69c.05-.09.08-.22.09-.39,0-.17,0-.35-.03-.55-.03-.19-.08-.37-.15-.53-.08-.16-.16-.27-.25-.32-.25-.14-.66-.23-1.23-.25-.57-.03-1.23-.01-1.97.04-.74.06-1.51.15-2.33.28-.81.13-1.57.28-2.26.45s-1.3.36-1.79.58c-.5.22-.81.44-.94.67-.25.45-.49.9-.72,1.36-.23.46-.45.93-.65,1.4Z"/>
        <path class="cls-1" d="M280.48,37.5c.38-.52.79-.84,1.25-.95.46-.11.96.03,1.51.43.27.2.45.46.53.77.08.31.1.63.05.94-.05.31-.15.62-.29.93-.14.31-.28.56-.42.74-.73,1.09-1.28,1.95-1.67,2.57-.39.62-.69,1.16-.92,1.6s-.42.85-.59,1.21c-.17.37-.39.85-.65,1.43-.26.59-.63,1.34-1.1,2.25-.47.91-1.12,2.13-1.97,3.64-.05.06-.04.16,0,.29.05.13.09.25.1.36l.19.14c.23.17.59.25,1.06.25.47,0,.97-.04,1.49-.11.52-.07,1.02-.15,1.51-.24.49-.09.85-.14,1.09-.16l2.97-.47.38.28s.04.13.04.34c0,.21.02.47.05.77.02.3.04.62.05.97.01.34.05.65.11.91.09.29.2.8.34,1.54.14.74.29,1.53.43,2.36.14.83.27,1.62.37,2.37.11.74.17,1.26.18,1.56-.32.21-.64.39-.96.52-.32.13-.65.07-.99-.17-.64-.46-1.06-.99-1.27-1.59-.21-.6-.36-1.24-.43-1.91-.08-.68-.17-1.36-.26-2.05-.1-.69-.35-1.36-.76-2-.33-.17-.75-.24-1.26-.2-.51.04-1.07.13-1.66.27-.59.14-1.2.31-1.83.51-.63.19-1.21.37-1.75.51-.54.15-1.03.24-1.45.28-.42.04-.72-.01-.89-.17-.45-.49-.65-1.22-.58-2.18.07-.97.3-2.06.69-3.29.39-1.23.89-2.51,1.51-3.86.62-1.34,1.26-2.64,1.91-3.9.65-1.26,1.28-2.4,1.88-3.42.6-1.03,1.07-1.82,1.42-2.4-.13-.13-.18-.28-.15-.46s.1-.35.21-.52c.1-.16.21-.31.32-.44.11-.13.18-.21.21-.25Z"/>
      </g>
      <g>
        <path class="cls-1" d="M215.09,172.06c-1.64-.94-3.37.91-4.5,2.14-.18.2-.33.36-.44.46-2.29,2.09-4.27,3.7-7.24,3.89-2.21.08-4.47-.4-6.32-1.49.54-.92,1.1-1.83,1.63-2.7l1.04-1.7c4.41-7.36,6.43-13.65,6.35-19.76,0-.22.02-.49.05-.81.09-1.16.2-2.59-.41-3.56-.44-.7-1.08-1.1-1.83-.98-.8.08-1.54.74-1.88,1.67-.27.74-.38,1.49-.49,2.21-.08.52-.15,1.03-.3,1.52-.33,1.11-.82,2.22-1.47,3.29-1.85,3.05-4.65,4.91-7.79,5.25.02-.46.05-.93.07-1.38l.11-2.14c.36-8.57-.87-15.05-3.85-20.4-.11-.19-.22-.45-.35-.73-.47-1.06-1.06-2.37-2.06-2.93-.72-.4-1.48-.4-2.07,0-.67.46-1,1.38-.86,2.37.12.78.38,1.49.63,2.18.18.49.37.98.47,1.48.24,1.14.33,2.35.27,3.59-.2,4.18-2.19,7.42-5.51,9.04-.74-1.33-1.43-2.71-2.12-4.08-1.44-2.87-2.93-5.83-4.85-8.24-2.72-3.42-6.32-6.31-10.63-8.45-.87-.45-2.17-1.16-3.19-.53-.3.17-.79.61-.79,1.51,0,1.06.82,2.05,1.81,3.14.15.17.29.31.39.43.37.46.76.91,1.16,1.36,1.2,1.38,2.44,2.81,3.13,4.39.96,2.18.73,5.06-.54,7.58-.95-.62-1.88-1.29-2.82-1.93-2.64-1.84-5.36-3.74-8.21-4.95-4.03-1.72-8.64-2.53-13.37-2.36-.98.02-2.46.03-3.06,1.05-.17.3-.4.91.02,1.7.5.92,1.7,1.4,3.1,1.89.21.08.4.14.55.2.55.23,1.11.44,1.68.65,1.71.64,3.48,1.31,4.83,2.35,2.05,1.59,3.28,4.64,3.16,7.68-1.04-.05-2.08-.11-3.12-.17-4.02-.24-8.19-.49-12.37.43-2.4.53-4.84,1.34-7.45,2.46-1.34.58-2.51,1.18-3.57,1.85-1.43.9-2.24,1.81-2.42,2.7-.1.51,0,1.02.3,1.43,1.21,1.75,2.99.97,4.06.49.36-.16.73-.33,1.11-.43l.67-.17c1.11-.3,2.26-.62,3.34-.68,1.76-.05,3.61.27,5.2,1.05,1.42.7,2.63,1.78,3.54,3.16-.49.24-.98.46-1.47.69-3.68,1.73-7.48,3.51-10.74,6.33-1.83,1.59-3.59,3.46-5.37,5.72-.91,1.16-1.64,2.24-2.25,3.33-.83,1.48-1.11,2.66-.84,3.53.16.49.49.9.94,1.11,1.92.97,3.1-.58,3.8-1.5.24-.31.48-.64.78-.91l.48-.46c.84-.81,1.71-1.64,2.64-2.22,1.5-.94,3.3-1.5,5.07-1.57,1.92-.03,3.9.47,5.54,1.56-.11.22-.22.44-.33.65-.84,1.52-1.79,3-2.75,4.5-1.77,2.77-3.61,5.63-4.77,8.78-.84,2.27-1.3,4.63-1.4,7.01l-.05.99c-.18,3.09-.23,5.54.85,6.69.38.4.87.62,1.41.62,1.91,0,2.34-2.37,2.73-4.44.1-.52.19-1.03.3-1.44.43-1.59,1.16-2.89,2.32-4.09,2.47-2.56,4.65-3.81,6.96-3.94-.03,1.52-.14,3.06-.25,4.59-.24,3.28-.48,6.67,0,9.99.35,2.39,1.06,4.69,2.12,6.83l.42.88c1.32,2.81,2.45,4.98,3.94,5.48.51.14,1.05.12,1.53-.14,1.67-.91.94-3.19.29-5.2-.17-.51-.32-1-.42-1.4-.38-1.61-.36-3.11.08-4.72.79-2.88,2.02-5.95,5.02-7.29.9,1.5,1.75,3.13,2.52,4.85,2.67,5.93,6.65,10.7,11.84,14.18l.59.42c1.23.87,2.76,1.95,4.33,1.99h.1c1.18,0,1.68-.64,1.87-1.03.5-1-.03-2.24-.69-3.07-.6-.77-1.29-1.41-1.95-2.05-.52-.5-1.05-1-1.52-1.54-.96-1.13-1.73-2.59-2.17-4.08-.8-2.72-.07-5.01.9-6.66,1.1.71,2.23,1.5,3.42,2.4,5.18,3.95,10.96,6.24,17.17,6.81l.71.08c1.5.17,3.36.39,4.77-.31,1.12-.56,1.26-1.39,1.25-1.84-.03-1.11-1.1-1.96-2.08-2.38-.89-.38-1.8-.62-2.68-.86-.71-.19-1.41-.37-2.08-.63-1.4-.55-2.76-1.45-3.85-2.54-2.28-2.3-2.56-5.07-2.28-7.25,1.44.05,2.9.19,4.32.33,3.42.33,6.96.68,10.52-.1,3.38-.73,6.5-2.08,10.13-3.89l.35-.15c1.39-.62,2.91-1.38,3.32-2.67.19-.6.11-1.22-.24-1.8-.99-1.63-3.4-.8-5-.26-.24.08-.45.15-.58.19-3.01.73-5.53,1.21-8.22-.05-1.68-.79-3.17-2.07-4.29-3.67.98-.46,1.99-.88,2.99-1.31,3.18-1.35,6.46-2.75,9.23-5.13,2.63-2.25,4.72-4.93,7.04-8.24l.24-.3c.93-1.2,1.91-2.59,1.64-3.92-.12-.62-.49-1.13-1.06-1.47Z"/>
        <g>
          <path class="cls-1" d="M280.95,75.21l-.04.11c-4.19-2.8-8.64-5.16-12.86-7.46-12.58-6.39-21.41-17.63-35.22-22.34-9.27-3.1-18.73-2.96-27.88-4.24-8.87-1.25-17.54-4.6-26.82-5.56-14.21-1.94-28.16,6.13-40.96,8.59-8.97,1.7-17.69,5.17-26.64,9.77-.61.31-.87,1.06-.59,1.68l1.04,2.33c.29.65,1.06.93,1.71.63,8.28-3.82,15.83-6.68,25.59-8.04,13.86-1.9,25.31-8.77,38.81-6.62,8.8,1.38,17.17,5.09,26.26,6.78,8.73,1.69,17.78,1.96,25.76,5.01,8.95,3.77,16.59,12.54,24.65,19.21,2.66,2.2,2.63,6.28-.12,8.37h0c-1.24.95-4.18,3.21-4.64,1.82-.18-4.37-2.61-8.99-6.89-12.23-6.82-5.17-15.51-4.65-19.96.7-5.88,7.06-2.91,15.71,3.92,20.88,5.38,4.07,12.56,3.8,17.42.8.51-.32,1.01-.04,1.06.56.22,2.58-.06,2.11.23,4.72.13,1.14.45,2.27-1.13,3.12-4.55,2.44-4.69-1.05-13.92-2.84-13.92-1.44-24.33-13.33-38.41-14.14-7.1-.54-13.44.64-20.34.1-7.41-.35-15.59-1.59-22.45,2.63-.36.22-.49.7-.29,1.08l1.13,2.21c.2.39.68.54,1.08.35,6.09-2.86,13.2-.82,19.81.2,9.31,1.88,19.71.2,28.09,4.98,5.8,3.26,11.03,7.88,17.59,10.8,9.07,4.02,17.89,4.89,24.74,12.22,2.73,3.12,6.07,6.14,9.67,8.96,0,0,0,.02,0,.02,34.03,32.3,20.67,39.01,24.53,59.69,2.26,12.08,5.01,16.42,2.16,23.68-.18.43-.21.5-.41.97-2.23,5.03-5.61,10.06-14.89,21.31l-1.27,1.55c-5.27,7.1-7.62,15.61-14.28,21.06-5.21,3.87-12.02,6.54-17.72,11.05-8.05,6.3-12.66,13.93-22.81,16.19-6.52,1.65-14,.36-20.04,3.93-6.44,3.51-11.64,7.04-17.35,7.97-5.95,1.09-11.49-1.49-18.98-.21l-3,.51c-.25.04-.42.27-.38.52.11.76.33,2.32.46,3.21.03.21.22.34.43.32,7.75-.98,13.46,5.05,22.58,4.54,7.5-.49,14.52-4.25,20.97-7.01,9.93-4.43,19.65.35,29.78-4.79,6.73-3.34,11.92-8.64,17.6-12.32,5.58-3.45,12.11-5.24,18.37-9.1,9.91-5.44,14.67-17.17,21.89-24.54,1.32-1.35,2.94-2.74,4.72-4.31,1.75-1.55,4.1-2.23,6.4-1.81l1.39.25c3.92.71,5.9,5.14,3.8,8.53-1.06,1.7-2.22,3.57-3.43,5.63-6.96,13.11-4.85,22.12-16.5,30.31-4.85,3.69-10.39,10.25-13.69,15.38-3.48,4.96-6.04,7.83-11.61,10.3,0,0-8.71,3.75-8.71,3.75-8.54,3.37-15.81,12.49-23.65,14.96-5.25,1.76-11.37,3.05-18.04,5.2l-2.23.72c-.45.15-.73.64-.6,1.1.26.96.61,2.33.85,3.23.11.41.53.64.95.52,6.73-1.85,13.16-1.27,21.22-2.91,9.75-2.04,16.51-9.91,25.55-12.93,9.79-2.64,20.47-7.04,26.68-15.77,5.9-8.17,13.15-11.56,20.73-18.36,7.37-6.09,10.49-20.11,14.69-25.98,2.79-4.21,7.98-9.35,11.34-17.57l2.86-7c2.66-5.61,5.96-12.96,7.56-18.74,4.74-17.1,6.17-34.42,4.32-51.96-1.86-17.55-7.76-34.44-17.71-50.68-9.94-16.24-14.4-32.63-33.91-45.56Z"/>
          <path class="cls-1" d="M231.18,307.95l-1.51-2.46c-.32-.52-1-.68-1.53-.36-8.25,5.01-17.62,6.99-27.48,9.93-13.91,4.13-21.9,9.76-36.14,9.6-9.25-.06-18.34-2.69-27.85-3.5-9.15-.85-18.55-.54-27.02-3.2-9.26-3.22-16.96-10.16-25.07-16.16-3.28-2.43-1.6-5.89-.06-8.71.21-.39,3.13-6.41,3.28-4.45.33,4.36,2.91,8.9,7.3,11.99,6.99,4.93,15.66,4.13,19.93-1.37,5.64-7.26,2.37-15.8-4.62-20.73-5.84-4.11-13.53-3.3-18.25.38-.29.22-.69-.06-.6-.42,1.17-4.64.21-6.18.13-8.29-.11-2.72,2.2-2.74,3.09-2.33,4.64,2.68,6.56,3.03,12.02,4.36,8.13,2.04,15.94,1.53,23.65,2.46,11.24,1.6,23.44,7.22,35.22,4.46,8.21-1.56,15.11-4.55,22.27-5.69,7.52-1.25,16.28-1.94,23.83-5.84.57-.29.8-1,.54-1.58-.22-.5-.49-1.09-.71-1.59-.27-.6-.96-.86-1.57-.62-7.07,2.81-14.65,2.64-22.89,3.17-8.09.53-15.71,2.91-22.66,3.47-7.31.74-13.35-1.5-20.25-4.07-13.29-6.25-29.75-3.56-41.74-12.54-5.32-4.3-11.79-8.36-18.36-11.87-1.52-.81-2.94-1.79-4.19-2.98-28.81-27.32-17.21-34.76-21.54-54.25-4.56-20.54-10.44-17.99,12.35-47.61l.28-.38c5.58-7.67,7.93-17.72,14.86-23.86,5.24-4.33,12.17-7.51,17.87-12.47,8.03-6.91,12.68-15.1,23.21-17.6,6.72-1.8,15.18-3.46,21.54-6.9,6.75-3.35,11.94-8.1,17.95-8.52,6.26-.54,13.98,2.57,21.77,2.49l2.68-.03c.45,0,.82-.37.83-.82l.09-3.56c.01-.46-.35-.83-.81-.85-8.03-.32-15.01-4.42-24.38-4.73-11.54-.29-21.06,6.91-31.9,8.64-7.5,1.3-15.53,1.8-22.88,5.8-3.93,2.14-7.16,4.75-10.04,7.19-8.15,8.12-16.84,10.87-26.62,17.12-9.98,6.26-14.29,18.59-21.49,26.65-1.46,1.55-3.01,3.06-4.58,4.6-2.02,1.99-4.85,2.92-7.64,2.51l-1.04-.15c-3.68-.54-5.66-4.62-3.81-7.84,1.07-1.86,2.27-3.92,3.51-6.22,6.52-13.35,4.09-22.27,15.47-30.85,4.72-3.85,10.04-10.6,13.16-15.84,3.3-5.08,5.77-8.03,11.25-10.68,0,0,8.58-4.04,8.58-4.04,8.42-3.66,15.38-13.02,23.13-15.76,5.18-1.93,11.72-2.29,18.32-4.66l1.76-.63c.71-.25,1.09-1.02.85-1.74l-.61-1.58c-.23-.72-1-1.1-1.73-.89-6.47,1.88-12.77,1.45-20.54,3.31-9.68,2.37-16.62,8.88-25.55,12.2-9.69,2.96-20.23,7.73-26.14,16.66-5.62,8.37-12.75,11.99-20.1,19.04-7.16,6.33-9.8,20.46-13.81,26.46-2.65,4.3-7.66,9.61-10.74,17.95,0,0-1.68,4.53-2.64,7.13-2.46,5.69-5.5,13.12-6.91,18.94C-.24,170.51-1.09,187.87,1.36,205.34c2.45,17.48,8.92,34.16,19.41,50.05.7,1.06,1.38,2.13,2.02,3.21,0,0,.12.17.13.18,7.69,12.48,12.94,24.96,25.5,35.41,6.09,5.27,13.38,9.06,20.19,12.63,13.23,6.48,23.24,17.63,37.94,21.7,9.88,2.65,19.75,1.9,29.46,2.33,9.41.4,18.92,2.65,28.69,2.23,14.92-.17,25.14-7.31,38.02-11.88,9.06-3.17,19.45-5.9,28.13-11.73.5-.33.64-1.01.32-1.52Z"/>
        </g>
      </g>
    </g>
  </g>
</svg>